# AST/ASF file generated using VICON BodyLanguage
# -----------------------------------------------
:version 1.10
:name VICON
:units
  mass 1.0
  length 0.45
  angle deg
:documentation
   .ast/.asf automatically generated from VICON data using
   VICON BodyBuilder and BodyLanguage model FoxedUp or BRILLIANT.MOD
:root
   order TX TY TZ RX RY RZ
   axis XYZ
   position 0 0 0  
   orientation 0 0 0 
:bonedata
  begin
     id 1 
     name lhipjoint
     direction 0.576517 -0.752066 0.319413 
     length 2.45433 
     axis 0 0 0  XYZ
  end
  begin
     id 2 
     name lfemur
     direction 0.34202 -0.939693 0  
     length 7.54459  
     axis 0 0 20  XYZ
    dof rx ry rz
    limits (-160.0 20.0)
           (-70.0 70.0)
           (-60.0 70.0)
  end
  begin
     id 3 
     name ltibia
     direction 0.34202 -0.939693 0   
     length 7.73986   
     axis 0 0 20   XYZ
    dof rx
    limits (-10.0 170.0)
  end
  begin
     id 4 
     name lfoot
     direction 0.090693 -0.249177 0.964202   
     length 2.28437   
     axis -90 7.62852e-016 20   XYZ
    dof rx rz
    limits (-45.0 90.0)
           (-70.0 20.0)
  end
  begin
     id 5 
     name ltoes
     direction 1.5356e-011 -4.21928e-011 1   
     length 1.14243   
     axis -90 7.62852e-016 20   XYZ
    dof rx
    limits (-90.0 20.0)
  end
  begin
     id 6 
     name rhipjoint
     direction -0.573937 -0.753736 0.320122   
     length 2.44889  
     axis 0 0 0  XYZ 
  end
  begin
     id 7 
     name rfemur
     direction -0.34202 -0.939693 0   
     length 7.50166   
     axis 0 0 -20   XYZ
    dof rx ry rz
    limits (-160.0 20.0)
           (-70.0 70.0)
           (-70.0 60.0)
  end
  begin
     id 8 
     name rtibia
     direction -0.34202 -0.939693 0   
     length 7.54266   
     axis 0 0 -20   XYZ
    dof rx
    limits (-10.0 170.0)
 end
 begin
     id 9 
     name rfoot
     direction -0.114017 -0.31326 0.942798   
     length 2.34212  
     axis -90 -7.62852e-016 -20   XYZ
    dof rx rz
    limits (-45.0 90.0)
           (-20.0 70.0)
  end
  begin
     id 10 
     name rtoes
     direction -1.53557e-011 -4.21867e-011 1   
     length 1.16246   
     axis -90 -7.62852e-016 -20   XYZ
    dof rx
    limits (-90.0 20.0)
  end
  begin
     id 11 
     name lowerback
     direction -0.0228371 0.999155 -0.034167   
     length 2.0537   
     axis 0 0 0   XYZ
    dof rx ry rz
    limits (-20.0 45.0)
           (-30.0 30.0)
           (-30.0 30.0)
  end
  begin
     id 12 
     name upperback
     direction 0.0198981 0.999794 0.00389455   
     length 2.05302   
     axis 0 0 0   XYZ
    dof rx ry rz
    limits (-20.0 45.0)
           (-30.0 30.0)
           (-30.0 30.0)
  end
  begin
     id 13 
     name thorax
     direction 0.0304566 0.99935 0.0192987   
     length 2.05315   
     axis 0 0 0   XYZ
    dof rx ry rz
    limits (-20.0 45.0)
           (-30.0 30.0)
           (-30.0 30.0)
  end
  begin
     id 14 
     name lowerneck
     direction -0.0196762 0.99417 0.106017   
     length 1.82056   
     axis 0 0 0   XYZ
    dof rx ry rz
    limits (-20.0 45.0)
           (-30.0 30.0)
           (-30.0 30.0)
  end
  begin
     id 15 
     name upperneck
     direction 0.00517787 0.9802 -0.197944   
     length 1.83835   
     axis 0 0 0   XYZ
    dof rx ry rz
    limits (-20.0 45.0)
           (-30.0 30.0)
           (-30.0 30.0)
  end
  begin
     id 16
     name head
     direction 0.00211419 0.996945 -0.078081  
     length 1.85629  
     axis 0 0 0   XYZ
    dof rx ry rz
    limits (-20.0 45.0)
           (-30.0 30.0)
           (-30.0 30.0)
  end
  begin
     id 17 
     name lclavicle
     direction 0.930001 0.365811 -0.0357824  
     length 3.81961  
     axis 0 0 0   XYZ
    dof ry rz
    limits (-20.0 10.0)
           (0.0 20.0)
  end
  begin
     id 18 
     name lhumerus
     direction 1 -4.48968e-011 -3.06644e-027   
     length 5.14507   
     axis 180 -30 -90   XYZ
    dof rx ry rz
    limits (-60.0 90.0)
           (-90.0 90.0)
           (-90.0 90.0)
  end
  begin
     id 19
     name lradius
     direction 1 -4.48965e-011 9.06925e-028   
     length 3.50646   
     axis 180 -30 -90   XYZ
    dof rx
    limits (-10.0 170.0)
  end
  begin
     id 20
     name lwrist
     direction 1 -4.48957e-011 1.03922e-027   
     length 1.75323   
     axis -2.56395e-016 90 90   XYZ
    dof ry
    limits (-180.0 0.0)
 end
  begin
     id 21 
     name lhand
     direction 1 -4.48967e-011 2.08017e-027   
     length 0.629969   
     axis -1.32723e-015 90 90   XYZ
    dof rx rz
    limits (-90.0 90.0)
           (-45.0 45.0)
  end
  begin
     id 22 
     name lfingers
     direction 1 -4.49089e-011 4.20095e-027   
     length 0.507897   
     axis -2.6545e-015 90 90   XYZ
    dof rx
    limits (0.0 90.0)
  end
  begin
     id 23
     name lthumb
     direction 0.707107 -6.35001e-011 0.707107   
     length 0.729241   
     axis -90 45 5.05613e-014   XYZ
    dof rx rz
    limits (-45.0 45.0)
           (-45.0 45.0)
  end
  begin
     id 24 
     name rclavicle
     direction -0.881882 0.464123 -0.0829113   
     length 3.47515  
     axis 0 0 0   XYZ 
    dof ry rz
    limits (-10.0 20.0)
           (-20.0 0.0)
  end
  begin
     id 25 
     name rhumerus
     direction -1 -4.48961e-011 -1.55672e-027  
     length 5.232   
     axis 180 30 90   XYZ
    dof rx ry rz
    limits (-90.0 60.0)
           (-90.0 90.0)
           (-90.0 90.0)
  end
  begin
     id 26 
     name rradius
     direction -1 -4.48963e-011 6.18178e-029   
     length 3.65641   
     axis 180 30 90   XYZ
    dof rx
    limits (-10.0 170.0)
  end
  begin
     id 27 
     name rwrist
     direction -1 -4.48982e-011 1.04136e-027   
     length 1.8282   
     axis -2.56395e-016 -90 -90   XYZ
    dof ry
    limits (-180.0 0.0)
  end
  begin
     id 28
     name rhand
     direction -1 -4.48929e-011 2.07378e-027   
     length 0.656807   
     axis -1.32723e-015 -90 -90   XYZ
    dof rx rz
    limits (-90.0 90.0)
           (-45.0 45.0)
  end
  begin
     id 29
     name rfingers
     direction -1 -4.489e-011 4.13816e-027   
     length 0.529535   
     axis -2.6545e-015 -90 -90   XYZ
    dof rx
    limits (0.0 90.0)
  end
  begin
     id 30
     name rthumb
     direction -0.707107 -6.34843e-011 0.707107   
     length 0.760309   
     axis -90 -45 -5.05613e-014   XYZ
    dof rx rz
    limits (-45.0 45.0)
           (-45.0 45.0)
  end
:hierarchy
  begin
    root lhipjoint rhipjoint lowerback
    lhipjoint lfemur
    lfemur ltibia
    ltibia lfoot
    lfoot ltoes
    rhipjoint rfemur
    rfemur rtibia
    rtibia rfoot
    rfoot rtoes
    lowerback upperback
    upperback thorax
    thorax lowerneck lclavicle rclavicle
    lowerneck upperneck
    upperneck head
    lclavicle lhumerus
    lhumerus lradius
    lradius lwrist
    lwrist lhand lthumb
    lhand lfingers
    rclavicle rhumerus
    rhumerus rradius
    rradius rwrist
    rwrist rhand rthumb
    rhand rfingers
  end

#!OML:ASF H:\ManfredETheater\Project 1\Capture day 1\Session 1\subject.ASF
:FULLY-SPECIFIED
:DEGREES
111
root 1.86851 17.9201 -4.45252 6.55628 2.35577 1.25021
lowerback -0.99108 -0.632152 -2.57372
upperback -2.02256 -0.843237 -0.00574001
thorax -1.48097 -0.383544 1.43851
lowerneck -16.7948 -3.92219 -4.29691
upperneck -4.50281 -4.35594 -2.4231
head 1.42637 -2.18661 -0.312003
rclavicle 6.07303e-015 -1.35671e-014
rhumerus -18.2112 -22.425 -2.2747
rradius 24.8053
rwrist 6.47352
rhand -20.4807 -18.8681
rfingers 7.12502
rthumb 5.87577 -48.7666
lclavicle 6.07303e-015 -1.35671e-014
lhumerus -13.5441 23.9544 7.1337
lradius 25.2629
lwrist -19.657
lhand -14.5295 13.0576
lfingers 7.12502
lthumb 11.6185 42.7155
rfemur -10.5207 -1.43164 8.9699
rtibia 27.5568
rfoot -17.0724 -17.002
rtoes 1.53115
lfemur -13.5876 -3.42556 -13.4519
ltibia 31.018
lfoot -17.0429 11.1201
ltoes -9.65487
112
root 1.86899 17.921 -4.4537 6.59264 2.29713 1.2364
lowerback -0.937503 -0.617629 -2.57865
upperback -2.04874 -0.825847 -0.00152043
thorax -1.53858 -0.373751 1.4464
lowerneck -16.457 -3.90393 -4.34175
upperneck -5.68496 -4.38606 -1.80152
head 0.988371 -2.15682 -0.0874927
rclavicle 2.81521e-015 -1.19271e-015
rhumerus -18.181 -22.5435 -2.27031
rradius 24.7832
rwrist 6.512
rhand -20.4916 -18.8854
rfingers 7.12502
rthumb 5.86522 -48.7842
lclavicle 2.81521e-015 -1.19271e-015
lhumerus -13.5962 23.9438 7.0869
lradius 25.3063
lwrist -19.6228
lhand -14.5612 13.0641
lfingers 7.12502
lthumb 11.588 42.7237
rfemur -10.5809 -1.41829 8.97749
rtibia 27.5485
rfoot -17.0469 -16.9689
rtoes 1.53225
lfemur -13.6152 -3.42884 -13.4437
ltibia 31.0133
lfoot -17.0418 11.1796
ltoes -9.63547
113
root 1.86934 17.9219 -4.45483 6.62998 2.23642 1.21893
lowerback -0.886865 -0.602767 -2.59015
upperback -2.0788 -0.807922 0.00755513
thorax -1.59842 -0.363474 1.46291
lowerneck -16.1108 -3.8779 -4.38799
upperneck -6.85149 -4.3924 -1.09658
head 0.563944 -2.11907 0.160311
rclavicle 2.49684e-015 9.0944e-015
rhumerus -18.1397 -22.6705 -2.26908
rradius 24.7614
rwrist 6.56125
rhand -20.5028 -18.8946
rfingers 7.12502
rthumb 5.85436 -48.7937
lclavicle 2.49684e-015 9.0944e-015
lhumerus -13.6454 23.9315 7.04913
lradius 25.3498
lwrist -19.5817
lhand -14.593 13.0704
lfingers 7.12502
lthumb 11.5572 42.7318
rfemur -10.6421 -1.39933 8.98977
rtibia 27.5388
rfoot -17.0219 -16.9383
rtoes 1.53689
lfemur -13.6434 -3.43388 -13.4312
ltibia 31.0086
lfoot -17.041 11.2433
ltoes -9.61409
114
root 1.86957 17.9228 -4.45589 6.6675 2.1741 1.19862
lowerback -0.839294 -0.587669 -2.60935
upperback -2.11219 -0.789598 0.0216458
thorax -1.65985 -0.352765 1.48883
lowerneck -15.7541 -3.84404 -4.43354
upperneck -7.99792 -4.373 -0.313935
head 0.153735 -2.07381 0.430236
rclavicle -9.11653e-015 6.1996e-015
rhumerus -18.0891 -22.7939 -2.27195
rradius 24.7441
rwrist 6.61071
rhand -20.5147 -18.8954
rfingers 7.12502
rthumb 5.84286 -48.7949
lclavicle -9.11653e-015 6.1996e-015
lhumerus -13.6903 23.9214 7.02211
lradius 25.3913
lwrist -19.5381
lhand -14.6229 13.0772
lfingers 7.12502
lthumb 11.5284 42.7401
rfemur -10.7036 -1.37545 9.00585
rtibia 27.5281
rfoot -16.9973 -16.9103
rtoes 1.54398
lfemur -13.6714 -3.4404 -13.4152
ltibia 31.0038
lfoot -17.0405 11.3102
ltoes -9.59132
115
root 1.86966 17.9237 -4.45687 6.7044 2.11076 1.17643
lowerback -0.794941 -0.572479 -2.63704
upperback -2.14817 -0.77106 0.0406917
thorax -1.72202 -0.341705 1.52453
lowerneck -15.3829 -3.80231 -4.47755
upperneck -9.11937 -4.32623 0.54007
head -0.242909 -2.02147 0.722938
rclavicle 9.79034e-015 -9.95166e-015
rhumerus -18.0307 -22.9049 -2.27981
rradius 24.7348
rwrist 6.65168
rhand -20.5273 -18.8892
rfingers 7.12502
rthumb 5.83069 -48.7889
lclavicle 9.79034e-015 -9.95166e-015
lhumerus -13.7294 23.9168 7.0072
lradius 25.4288
lwrist -19.4955
lhand -14.649 13.0833
lfingers 7.12502
lthumb 11.5033 42.7476
rfemur -10.7643 -1.34809 9.02459
rtibia 27.5167
rfoot -16.9729 -16.8841
rtoes 1.55233
lfemur -13.698 -3.4484 -13.3969
ltibia 30.9987
lfoot -17.0402 11.3797
ltoes -9.56817
116
root 1.86964 17.9246 -4.45774 6.74007 2.04696 1.15332
lowerback -0.754243 -0.55734 -2.67383
upperback -2.1859 -0.752485 0.0644626
thorax -1.78384 -0.330384 1.57013
lowerneck -14.9969 -3.75264 -4.52055
upperneck -10.2064 -4.25066 1.45854
head -0.627344 -1.96235 1.04044
rclavicle 7.38163e-015 1.03182e-014
rhumerus -17.9656 -22.9993 -2.29324
rradius 24.7354
rwrist 6.67934
rhand -20.5407 -18.877
rfingers 7.12502
rthumb 5.81779 -48.7771
lclavicle 7.38163e-015 1.03182e-014
lhumerus -13.7613 23.9209 7.00547
lradius 25.4604
lwrist -19.458
lhand -14.6698 13.0868
lfingers 7.12502
lthumb 11.4832 42.7523
rfemur -10.823 -1.31875 9.0448
rtibia 27.5045
rfoot -16.9484 -16.859
rtoes 1.56067
lfemur -13.7225 -3.45765 -13.3772
ltibia 30.9931
lfoot -17.0397 11.451
ltoes -9.5463
117
root 1.86952 17.9255 -4.45846 6.77378 1.98328 1.12989
lowerback -0.717372 -0.542333 -2.71972
upperback -2.22437 -0.733975 0.0926121
thorax -1.84419 -0.318864 1.62526
lowerneck -14.6054 -3.69489 -4.56362
upperneck -11.2424 -4.14468 2.43493
head -0.998591 -1.89629 1.38377
rclavicle -1.66657e-015 -1.58189e-014
rhumerus -17.8946 -23.077 -2.31242
rradius 24.7464
rwrist 6.6922
rhand -20.5545 -18.86
rfingers 7.12502
rthumb 5.8045 -48.7604
lclavicle -1.66657e-015 -1.58189e-014
lhumerus -13.7847 23.9371 7.01767
lradius 25.4847
lwrist -19.4306
lhand -14.6849 13.0856
lfingers 7.12502
lthumb 11.4686 42.7519
rfemur -10.8788 -1.28893 9.06569
rtibia 27.4916
rfoot -16.9239 -16.8343
rtoes 1.56864
lfemur -13.744 -3.46809 -13.3571
ltibia 30.9869
lfoot -17.0391 11.5232
ltoes -9.527
118
root 1.8693 17.9263 -4.45905 6.80512 1.92005 1.10616
lowerback -0.684467 -0.5274 -2.77425
upperback -2.26282 -0.715446 0.124827
thorax -1.90222 -0.307122 1.68934
lowerneck -14.2231 -3.62855 -4.6059
upperneck -12.2087 -4.00706 3.46228
head -1.35258 -1.82292 1.75149
rclavicle -8.05368e-015 -2.12894e-014
rhumerus -17.8184 -23.1401 -2.33708
rradius 24.7671
rwrist 6.69086
rhand -20.5682 -18.8391
rfingers 7.12502
rthumb 5.79122 -48.74
lclavicle -8.05368e-015 -2.12894e-014
lhumerus -13.7983 23.9663 7.04429
lradius 25.5014
lwrist -19.4156
lhand -14.6941 13.0777
lfingers 7.12502
lthumb 11.4598 42.7444
rfemur -10.9309 -1.25903 9.08722
rtibia 27.4777
rfoot -16.8996 -16.8099
rtoes 1.57634
lfemur -13.762 -3.47953 -13.3364
ltibia 30.9802
lfoot -17.0384 11.5957
ltoes -9.51058
119
root 1.86897 17.9272 -4.45949 6.83376 1.85745 1.08215
lowerback -0.655423 -0.51236 -2.83705
upperback -2.30047 -0.696655 0.160735
thorax -1.95723 -0.295051 1.76179
lowerneck -13.8635 -3.55252 -4.64413
upperneck -13.0903 -3.83719 4.53213
head -1.68412 -1.74172 2.1404
rclavicle 8.11639e-016 3.10912e-015
rhumerus -17.7384 -23.1919 -2.36646
rradius 24.7964
rwrist 6.67798
rhand -20.5817 -18.8149
rfingers 7.12502
rthumb 5.77819 -48.7161
lclavicle 8.11639e-016 3.10912e-015
lhumerus -13.8009 24.0099 7.08581
lradius 25.5101
lwrist -19.4164
lhand -14.6989 13.062
lfingers 7.12502
lthumb 11.4551 42.7291
rfemur -10.9789 -1.22904 9.10939
rtibia 27.4629
rfoot -16.8757 -16.7856
rtoes 1.58461
lfemur -13.7765 -3.49196 -13.3152
ltibia 30.9732
lfoot -17.0378 11.6683
ltoes -9.49673
120
root 1.86852 17.928 -4.45983 6.85954 1.79571 1.05687
lowerback -0.629837 -0.496999 -2.90687
upperback -2.33708 -0.677321 0.200292
thorax -2.00925 -0.282531 1.84187
lowerneck -13.5357 -3.46539 -4.67333
upperneck -13.8769 -3.63543 5.6348
head -1.98871 -1.65229 2.54639
rclavicle 6.07536e-015 2.18663e-015
rhumerus -17.6558 -23.2329 -2.39985
rradius 24.8334
rwrist 6.65352
rhand -20.5953 -18.7887
rfingers 7.12502
rthumb 5.76509 -48.6903
lclavicle 6.07536e-015 2.18663e-015
lhumerus -13.7921 24.0658 7.14246
lradius 25.5118
lwrist -19.4326
lhand -14.7006 13.0395
lfingers 7.12502
lthumb 11.4535 42.7067
rfemur -11.0227 -1.19834 9.13344
rtibia 27.4471
rfoot -16.8526 -16.7624
rtoes 1.59391
lfemur -13.7875 -3.50534 -13.2922
ltibia 30.9661
lfoot -17.0378 11.7405
ltoes -9.48459
121
root 1.86794 17.9289 -4.4601 6.8825 1.73486 1.03001
lowerback -0.607306 -0.481006 -2.98326
upperback -2.37266 -0.657042 0.243333
thorax -2.05855 -0.26936 1.92916
lowerneck -13.2459 -3.36606 -4.68832
upperneck -14.5608 -3.40343 6.7606
head -2.26255 -1.55458 2.96505
rclavicle -8.37575e-015 1.00262e-014
rhumerus -17.5724 -23.2635 -2.43613
rradius 24.8771
rwrist 6.61912
rhand -20.6098 -18.7618
rfingers 7.12502
rthumb 5.75106 -48.6637
lclavicle -8.37575e-015 1.00262e-014
lhumerus -13.7716 24.1307 7.21442
lradius 25.5076
lwrist -19.4622
lhand -14.7007 13.0116
lfingers 7.12502
lthumb 11.4534 42.6788
rfemur -11.0624 -1.16637 9.15983
rtibia 27.4304
rfoot -16.8303 -16.7405
rtoes 1.60428
lfemur -13.7955 -3.51992 -13.2671
ltibia 30.9592
lfoot -17.0385 11.8127
ltoes -9.47257
122
root 1.86722 17.9296 -4.46036 6.90251 1.67493 1.00116
lowerback -0.587034 -0.464162 -3.06566
upperback -2.40763 -0.635554 0.289844
thorax -2.10607 -0.255393 2.02336
lowerneck -12.9971 -3.25358 -4.68392
upperneck -15.1379 -3.14366 7.89992
head -2.5029 -1.44873 3.39183
rclavicle 3.50979e-016 -1.44119e-014
rhumerus -17.4895 -23.2812 -2.47464
rradius 24.927
rwrist 6.57418
rhand -20.6264 -18.7362
rfingers 7.12502
rthumb 5.73508 -48.6386
lclavicle 3.50979e-016 -1.44119e-014
lhumerus -13.7401 24.1978 7.30144
lradius 25.4992
lwrist -19.4998
lhand -14.7005 12.9809
lfingers 7.12502
lthumb 11.4536 42.648
rfemur -11.0983 -1.13286 9.18908
rtibia 27.4131
rfoot -16.8089 -16.7204
rtoes 1.61489
lfemur -13.8006 -3.53596 -13.2394
ltibia 30.9531
lfoot -17.0405 11.8849
ltoes -9.45902
